<mxfile host="65bd71144e">
    <diagram id="ngRAPKE_8LOOHrz7kV6Y" name="Page-1">
        <mxGraphModel dx="1738" dy="1558" grid="1" gridSize="10" guides="1" tooltips="1" connect="1" arrows="1" fold="1" page="1" pageScale="1" pageWidth="850" pageHeight="1100" math="0" shadow="0">
            <root>
                <mxCell id="0"/>
                <mxCell id="1" parent="0"/>
                <mxCell id="2" value="" style="shape=flexArrow;endArrow=classic;startArrow=classic;html=1;" edge="1" parent="1">
                    <mxGeometry width="100" height="100" relative="1" as="geometry">
                        <mxPoint x="400" y="2490" as="sourcePoint"/>
                        <mxPoint x="400" y="10" as="targetPoint"/>
                    </mxGeometry>
                </mxCell>
                <mxCell id="4" value="BACKEND&lt;br&gt;BE&lt;br&gt;SERVER&lt;br&gt;CLOUD&lt;br&gt;SERVERLESS" style="rounded=0;whiteSpace=wrap;html=1;" vertex="1" parent="1">
                    <mxGeometry x="530" y="20" width="120" height="100" as="geometry"/>
                </mxCell>
                <mxCell id="5" value="FRONTEND&lt;br&gt;BROWSER&lt;br&gt;FE&lt;br&gt;CLIENT_SIDE" style="rounded=0;whiteSpace=wrap;html=1;" vertex="1" parent="1">
                    <mxGeometry x="120" y="20" width="120" height="100" as="geometry"/>
                </mxCell>
                <mxCell id="6" value="REACT" style="rounded=0;whiteSpace=wrap;html=1;" vertex="1" parent="1">
                    <mxGeometry x="120" y="120" width="120" height="40" as="geometry"/>
                </mxCell>
                <mxCell id="7" value="FIREBASE" style="rounded=0;whiteSpace=wrap;html=1;" vertex="1" parent="1">
                    <mxGeometry x="530" y="120" width="120" height="40" as="geometry"/>
                </mxCell>
                <mxCell id="8" value="FULL STACK" style="rounded=0;whiteSpace=wrap;html=1;" vertex="1" parent="1">
                    <mxGeometry x="120" y="-70" width="530" height="60" as="geometry"/>
                </mxCell>
                <mxCell id="9" value="initTodos" style="swimlane;fontStyle=0;childLayout=stackLayout;horizontal=1;startSize=30;horizontalStack=0;resizeParent=1;resizeParentMax=0;resizeLast=0;collapsible=1;marginBottom=0;whiteSpace=wrap;html=1;" vertex="1" parent="1">
                    <mxGeometry x="60" y="200" width="220" height="120" as="geometry"/>
                </mxCell>
                <mxCell id="10" value="&lt;div style=&quot;color: rgb(204, 204, 204); background-color: rgb(31, 31, 31); font-family: &amp;quot;Cascadia code PL&amp;quot;, Menlo, Monaco, &amp;quot;Courier New&amp;quot;, monospace, Consolas, &amp;quot;Courier New&amp;quot;, monospace; font-size: 15px; line-height: 20px;&quot;&gt;&lt;span style=&quot;color: #ce9178;&quot;&gt;Buy Eggs&lt;/span&gt;&lt;/div&gt;" style="text;strokeColor=none;fillColor=none;align=left;verticalAlign=middle;spacingLeft=4;spacingRight=4;overflow=hidden;points=[[0,0.5],[1,0.5]];portConstraint=eastwest;rotatable=0;whiteSpace=wrap;html=1;" vertex="1" parent="9">
                    <mxGeometry y="30" width="220" height="30" as="geometry"/>
                </mxCell>
                <mxCell id="11" value="&lt;div style=&quot;color: rgb(204, 204, 204); background-color: rgb(31, 31, 31); font-family: &amp;quot;Cascadia code PL&amp;quot;, Menlo, Monaco, &amp;quot;Courier New&amp;quot;, monospace, Consolas, &amp;quot;Courier New&amp;quot;, monospace; font-size: 15px; line-height: 20px;&quot;&gt;&lt;span style=&quot;color: #ce9178;&quot;&gt;Go to Shopping&lt;/span&gt;&lt;/div&gt;" style="text;strokeColor=none;fillColor=none;align=left;verticalAlign=middle;spacingLeft=4;spacingRight=4;overflow=hidden;points=[[0,0.5],[1,0.5]];portConstraint=eastwest;rotatable=0;whiteSpace=wrap;html=1;" vertex="1" parent="9">
                    <mxGeometry y="60" width="220" height="30" as="geometry"/>
                </mxCell>
                <mxCell id="12" value="&lt;div style=&quot;color: rgb(204, 204, 204); background-color: rgb(31, 31, 31); font-family: &amp;quot;Cascadia code PL&amp;quot;, Menlo, Monaco, &amp;quot;Courier New&amp;quot;, monospace, Consolas, &amp;quot;Courier New&amp;quot;, monospace; font-size: 15px; line-height: 20px;&quot;&gt;&lt;span style=&quot;color: #ce9178;&quot;&gt;Do a 100 pushups&lt;/span&gt;&lt;/div&gt;" style="text;strokeColor=none;fillColor=none;align=left;verticalAlign=middle;spacingLeft=4;spacingRight=4;overflow=hidden;points=[[0,0.5],[1,0.5]];portConstraint=eastwest;rotatable=0;whiteSpace=wrap;html=1;" vertex="1" parent="9">
                    <mxGeometry y="90" width="220" height="30" as="geometry"/>
                </mxCell>
                <mxCell id="13" style="edgeStyle=orthogonalEdgeStyle;html=1;entryX=0.5;entryY=0;entryDx=0;entryDy=0;exitX=0.479;exitY=0.989;exitDx=0;exitDy=0;exitPerimeter=0;" edge="1" parent="1" source="12" target="18">
                    <mxGeometry relative="1" as="geometry">
                        <mxPoint x="510" y="220" as="targetPoint"/>
                    </mxGeometry>
                </mxCell>
                <mxCell id="21" style="edgeStyle=orthogonalEdgeStyle;html=1;entryX=0.591;entryY=-0.033;entryDx=0;entryDy=0;entryPerimeter=0;" edge="1" parent="1" source="14">
                    <mxGeometry relative="1" as="geometry">
                        <mxPoint x="550.9200000000001" y="508.02" as="targetPoint"/>
                    </mxGeometry>
                </mxCell>
                <mxCell id="14" value="Collection 'todos'" style="swimlane;fontStyle=0;childLayout=stackLayout;horizontal=1;startSize=30;horizontalStack=0;resizeParent=1;resizeParentMax=0;resizeLast=0;collapsible=1;marginBottom=0;whiteSpace=wrap;html=1;" vertex="1" parent="1">
                    <mxGeometry x="480" y="380" width="220" height="60" as="geometry"/>
                </mxCell>
                <mxCell id="15" value="&lt;div style=&quot;color: rgb(204, 204, 204); background-color: rgb(31, 31, 31); font-family: &amp;quot;Cascadia code PL&amp;quot;, Menlo, Monaco, &amp;quot;Courier New&amp;quot;, monospace, Consolas, &amp;quot;Courier New&amp;quot;, monospace; font-size: 15px; line-height: 20px;&quot;&gt;&lt;span style=&quot;color: #ce9178;&quot;&gt;Buy Eggs&lt;/span&gt;&lt;/div&gt;" style="text;strokeColor=none;fillColor=none;align=left;verticalAlign=middle;spacingLeft=4;spacingRight=4;overflow=hidden;points=[[0,0.5],[1,0.5]];portConstraint=eastwest;rotatable=0;whiteSpace=wrap;html=1;" vertex="1" parent="14">
                    <mxGeometry y="30" width="220" height="30" as="geometry"/>
                </mxCell>
                <mxCell id="19" style="edgeStyle=orthogonalEdgeStyle;html=1;entryX=-0.001;entryY=-0.103;entryDx=0;entryDy=0;entryPerimeter=0;" edge="1" parent="1" source="18" target="15">
                    <mxGeometry relative="1" as="geometry"/>
                </mxCell>
                <mxCell id="29" value="REQUEST" style="edgeLabel;html=1;align=center;verticalAlign=middle;resizable=0;points=[];" vertex="1" connectable="0" parent="19">
                    <mxGeometry x="-0.3778" relative="1" as="geometry">
                        <mxPoint as="offset"/>
                    </mxGeometry>
                </mxCell>
                <mxCell id="18" value="&lt;div style=&quot;color: rgb(204, 204, 204); background-color: rgb(31, 31, 31); font-family: &amp;quot;Cascadia code PL&amp;quot;, Menlo, Monaco, &amp;quot;Courier New&amp;quot;, monospace, Consolas, &amp;quot;Courier New&amp;quot;, monospace; font-size: 15px; line-height: 20px;&quot;&gt;&lt;span style=&quot;color: #c586c0;&quot;&gt;await&lt;/span&gt; &lt;span style=&quot;color: #dcdcaa;&quot;&gt;addDoc&lt;/span&gt;(&lt;span style=&quot;color: #dcdcaa;&quot;&gt;collection&lt;/span&gt;(&lt;span style=&quot;color: #4fc1ff;&quot;&gt;db&lt;/span&gt;, &lt;span style=&quot;color: #ce9178;&quot;&gt;'todos'&lt;/span&gt;), &lt;span style=&quot;color: #4fc1ff;&quot;&gt;initTodo&lt;/span&gt;);&lt;/div&gt;" style="rounded=0;whiteSpace=wrap;html=1;" vertex="1" parent="1">
                    <mxGeometry x="20" y="380" width="300" height="60" as="geometry"/>
                </mxCell>
                <mxCell id="22" style="edgeStyle=orthogonalEdgeStyle;html=1;exitX=0;exitY=0.5;exitDx=0;exitDy=0;entryX=1;entryY=0.5;entryDx=0;entryDy=0;" edge="1" parent="1" source="24" target="23">
                    <mxGeometry relative="1" as="geometry">
                        <mxPoint x="240" y="520" as="targetPoint"/>
                        <mxPoint x="480" y="540" as="sourcePoint"/>
                    </mxGeometry>
                </mxCell>
                <mxCell id="25" value="SUCCESS" style="edgeLabel;html=1;align=center;verticalAlign=middle;resizable=0;points=[];" vertex="1" connectable="0" parent="22">
                    <mxGeometry x="-0.3978" y="2" relative="1" as="geometry">
                        <mxPoint x="20" y="-2" as="offset"/>
                    </mxGeometry>
                </mxCell>
                <mxCell id="23" value="Success" style="rounded=0;whiteSpace=wrap;html=1;" vertex="1" parent="1">
                    <mxGeometry x="30" y="490" width="120" height="60" as="geometry"/>
                </mxCell>
                <mxCell id="26" style="edgeStyle=orthogonalEdgeStyle;html=1;entryX=1;entryY=0.5;entryDx=0;entryDy=0;" edge="1" parent="1" source="24" target="28">
                    <mxGeometry relative="1" as="geometry">
                        <mxPoint x="290" y="660" as="targetPoint"/>
                        <Array as="points">
                            <mxPoint x="550" y="620"/>
                            <mxPoint x="290" y="620"/>
                            <mxPoint x="290" y="630"/>
                            <mxPoint x="250" y="630"/>
                        </Array>
                    </mxGeometry>
                </mxCell>
                <mxCell id="27" value="FAIL" style="edgeLabel;html=1;align=center;verticalAlign=middle;resizable=0;points=[];" vertex="1" connectable="0" parent="26">
                    <mxGeometry x="-0.2465" y="-1" relative="1" as="geometry">
                        <mxPoint as="offset"/>
                    </mxGeometry>
                </mxCell>
                <mxCell id="24" value="RESPONSE" style="rhombus;whiteSpace=wrap;html=1;" vertex="1" parent="1">
                    <mxGeometry x="510" y="510" width="80" height="80" as="geometry"/>
                </mxCell>
                <mxCell id="28" value="FAILED" style="rounded=0;whiteSpace=wrap;html=1;" vertex="1" parent="1">
                    <mxGeometry x="220" y="590" width="120" height="60" as="geometry"/>
                </mxCell>
                <mxCell id="33" style="edgeStyle=orthogonalEdgeStyle;html=1;entryX=-0.001;entryY=0.045;entryDx=0;entryDy=0;entryPerimeter=0;" edge="1" parent="1" source="30" target="32">
                    <mxGeometry relative="1" as="geometry"/>
                </mxCell>
                <mxCell id="30" value="&lt;div style=&quot;color: rgb(204, 204, 204); background-color: rgb(31, 31, 31); font-family: &amp;quot;Cascadia code PL&amp;quot;, Menlo, Monaco, &amp;quot;Courier New&amp;quot;, monospace, Consolas, &amp;quot;Courier New&amp;quot;, monospace; font-size: 15px; line-height: 20px;&quot;&gt;&lt;span style=&quot;color: #c586c0;&quot;&gt;await&lt;/span&gt; &lt;span style=&quot;color: #dcdcaa;&quot;&gt;getDocs&lt;/span&gt;(&lt;span style=&quot;color: #dcdcaa;&quot;&gt;collection&lt;/span&gt;(&lt;span style=&quot;color: #4fc1ff;&quot;&gt;db&lt;/span&gt;, &lt;span style=&quot;color: #ce9178;&quot;&gt;'todos'&lt;/span&gt;))&lt;/div&gt;" style="rounded=0;whiteSpace=wrap;html=1;" vertex="1" parent="1">
                    <mxGeometry x="30" y="750" width="300" height="60" as="geometry"/>
                </mxCell>
                <mxCell id="37" style="edgeStyle=orthogonalEdgeStyle;html=1;entryX=1;entryY=0.5;entryDx=0;entryDy=0;" edge="1" parent="1" source="31" target="36">
                    <mxGeometry relative="1" as="geometry"/>
                </mxCell>
                <mxCell id="31" value="Collection 'todos'" style="swimlane;fontStyle=0;childLayout=stackLayout;horizontal=1;startSize=30;horizontalStack=0;resizeParent=1;resizeParentMax=0;resizeLast=0;collapsible=1;marginBottom=0;whiteSpace=wrap;html=1;" vertex="1" parent="1">
                    <mxGeometry x="480" y="735" width="220" height="90" as="geometry"/>
                </mxCell>
                <mxCell id="32" value="&lt;div style=&quot;color: rgb(204, 204, 204); background-color: rgb(31, 31, 31); font-family: &amp;quot;Cascadia code PL&amp;quot;, Menlo, Monaco, &amp;quot;Courier New&amp;quot;, monospace, Consolas, &amp;quot;Courier New&amp;quot;, monospace; font-size: 15px; line-height: 20px;&quot;&gt;&lt;span style=&quot;color: #ce9178;&quot;&gt;Buy Eggs&lt;/span&gt;&lt;/div&gt;" style="text;strokeColor=none;fillColor=none;align=left;verticalAlign=middle;spacingLeft=4;spacingRight=4;overflow=hidden;points=[[0,0.5],[1,0.5]];portConstraint=eastwest;rotatable=0;whiteSpace=wrap;html=1;" vertex="1" parent="31">
                    <mxGeometry y="30" width="220" height="30" as="geometry"/>
                </mxCell>
                <mxCell id="35" value="&lt;span style=&quot;color: rgb(206, 145, 120); font-family: &amp;quot;Cascadia code PL&amp;quot;, Menlo, Monaco, &amp;quot;Courier New&amp;quot;, monospace, Consolas, &amp;quot;Courier New&amp;quot;, monospace; font-size: 15px; background-color: rgb(31, 31, 31);&quot;&gt;Go to Shopping&lt;/span&gt;" style="text;strokeColor=none;fillColor=none;align=left;verticalAlign=middle;spacingLeft=4;spacingRight=4;overflow=hidden;points=[[0,0.5],[1,0.5]];portConstraint=eastwest;rotatable=0;whiteSpace=wrap;html=1;" vertex="1" parent="31">
                    <mxGeometry y="60" width="220" height="30" as="geometry"/>
                </mxCell>
                <mxCell id="38" style="edgeStyle=orthogonalEdgeStyle;html=1;" edge="1" parent="1" source="36">
                    <mxGeometry relative="1" as="geometry">
                        <mxPoint x="280" y="920" as="targetPoint"/>
                    </mxGeometry>
                </mxCell>
                <mxCell id="41" style="edgeStyle=orthogonalEdgeStyle;html=1;" edge="1" parent="1" source="36">
                    <mxGeometry relative="1" as="geometry">
                        <mxPoint x="380" y="1070" as="targetPoint"/>
                        <Array as="points">
                            <mxPoint x="470" y="1070"/>
                        </Array>
                    </mxGeometry>
                </mxCell>
                <mxCell id="36" value="RESPONSE" style="rhombus;whiteSpace=wrap;html=1;" vertex="1" parent="1">
                    <mxGeometry x="430" y="880" width="80" height="80" as="geometry"/>
                </mxCell>
                <mxCell id="39" value="Success" style="rounded=0;whiteSpace=wrap;html=1;" vertex="1" parent="1">
                    <mxGeometry x="160" y="890" width="120" height="60" as="geometry"/>
                </mxCell>
                <mxCell id="40" value="TODOS[]" style="rounded=0;whiteSpace=wrap;html=1;" vertex="1" parent="1">
                    <mxGeometry x="160" y="950" width="120" height="60" as="geometry"/>
                </mxCell>
                <mxCell id="42" value="FAILED" style="rounded=0;whiteSpace=wrap;html=1;" vertex="1" parent="1">
                    <mxGeometry x="260" y="1040" width="120" height="60" as="geometry"/>
                </mxCell>
                <mxCell id="43" value="collection todos" style="swimlane;fontStyle=0;childLayout=stackLayout;horizontal=1;startSize=30;horizontalStack=0;resizeParent=1;resizeParentMax=0;resizeLast=0;collapsible=1;marginBottom=0;whiteSpace=wrap;html=1;" vertex="1" parent="1">
                    <mxGeometry x="460" y="1380" width="220" height="120" as="geometry"/>
                </mxCell>
                <mxCell id="44" value="&lt;div style=&quot;color: rgb(204, 204, 204); background-color: rgb(31, 31, 31); font-family: &amp;quot;Cascadia code PL&amp;quot;, Menlo, Monaco, &amp;quot;Courier New&amp;quot;, monospace, Consolas, &amp;quot;Courier New&amp;quot;, monospace; font-size: 15px; line-height: 20px;&quot;&gt;&lt;span style=&quot;color: #ce9178;&quot;&gt;Buy Eggs&lt;/span&gt;&lt;/div&gt;" style="text;strokeColor=none;fillColor=none;align=left;verticalAlign=middle;spacingLeft=4;spacingRight=4;overflow=hidden;points=[[0,0.5],[1,0.5]];portConstraint=eastwest;rotatable=0;whiteSpace=wrap;html=1;" vertex="1" parent="43">
                    <mxGeometry y="30" width="220" height="30" as="geometry"/>
                </mxCell>
                <mxCell id="45" value="&lt;div style=&quot;color: rgb(204, 204, 204); background-color: rgb(31, 31, 31); font-family: &amp;quot;Cascadia code PL&amp;quot;, Menlo, Monaco, &amp;quot;Courier New&amp;quot;, monospace, Consolas, &amp;quot;Courier New&amp;quot;, monospace; font-size: 15px; line-height: 20px;&quot;&gt;&lt;span style=&quot;color: #ce9178;&quot;&gt;Go to Shopping&lt;/span&gt;&lt;/div&gt;" style="text;strokeColor=none;fillColor=none;align=left;verticalAlign=middle;spacingLeft=4;spacingRight=4;overflow=hidden;points=[[0,0.5],[1,0.5]];portConstraint=eastwest;rotatable=0;whiteSpace=wrap;html=1;" vertex="1" parent="43">
                    <mxGeometry y="60" width="220" height="30" as="geometry"/>
                </mxCell>
                <mxCell id="46" value="&lt;div style=&quot;color: rgb(204, 204, 204); background-color: rgb(31, 31, 31); font-family: &amp;quot;Cascadia code PL&amp;quot;, Menlo, Monaco, &amp;quot;Courier New&amp;quot;, monospace, Consolas, &amp;quot;Courier New&amp;quot;, monospace; font-size: 15px; line-height: 20px;&quot;&gt;&lt;span style=&quot;color: #ce9178;&quot;&gt;Do a 100 pushups&lt;/span&gt;&lt;/div&gt;" style="text;strokeColor=none;fillColor=none;align=left;verticalAlign=middle;spacingLeft=4;spacingRight=4;overflow=hidden;points=[[0,0.5],[1,0.5]];portConstraint=eastwest;rotatable=0;whiteSpace=wrap;html=1;" vertex="1" parent="43">
                    <mxGeometry y="90" width="220" height="30" as="geometry"/>
                </mxCell>
                <mxCell id="47" value="DELETE" style="rounded=0;whiteSpace=wrap;html=1;" vertex="1" parent="1">
                    <mxGeometry x="130" y="1120" width="550" height="60" as="geometry"/>
                </mxCell>
                <mxCell id="48" value="todoArr State" style="swimlane;fontStyle=0;childLayout=stackLayout;horizontal=1;startSize=30;horizontalStack=0;resizeParent=1;resizeParentMax=0;resizeLast=0;collapsible=1;marginBottom=0;whiteSpace=wrap;html=1;" vertex="1" parent="1">
                    <mxGeometry x="110" y="1380" width="220" height="120" as="geometry"/>
                </mxCell>
                <mxCell id="49" value="&lt;div style=&quot;color: rgb(204, 204, 204); background-color: rgb(31, 31, 31); font-family: &amp;quot;Cascadia code PL&amp;quot;, Menlo, Monaco, &amp;quot;Courier New&amp;quot;, monospace, Consolas, &amp;quot;Courier New&amp;quot;, monospace; font-size: 15px; line-height: 20px;&quot;&gt;&lt;span style=&quot;color: #ce9178;&quot;&gt;Buy Eggs&lt;/span&gt;&lt;/div&gt;" style="text;strokeColor=none;fillColor=none;align=left;verticalAlign=middle;spacingLeft=4;spacingRight=4;overflow=hidden;points=[[0,0.5],[1,0.5]];portConstraint=eastwest;rotatable=0;whiteSpace=wrap;html=1;" vertex="1" parent="48">
                    <mxGeometry y="30" width="220" height="30" as="geometry"/>
                </mxCell>
                <mxCell id="50" value="&lt;div style=&quot;color: rgb(204, 204, 204); background-color: rgb(31, 31, 31); font-family: &amp;quot;Cascadia code PL&amp;quot;, Menlo, Monaco, &amp;quot;Courier New&amp;quot;, monospace, Consolas, &amp;quot;Courier New&amp;quot;, monospace; font-size: 15px; line-height: 20px;&quot;&gt;&lt;span style=&quot;color: #ce9178;&quot;&gt;Go to Shopping&lt;/span&gt;&lt;/div&gt;" style="text;strokeColor=none;fillColor=none;align=left;verticalAlign=middle;spacingLeft=4;spacingRight=4;overflow=hidden;points=[[0,0.5],[1,0.5]];portConstraint=eastwest;rotatable=0;whiteSpace=wrap;html=1;" vertex="1" parent="48">
                    <mxGeometry y="60" width="220" height="30" as="geometry"/>
                </mxCell>
                <mxCell id="51" value="&lt;div style=&quot;color: rgb(204, 204, 204); background-color: rgb(31, 31, 31); font-family: &amp;quot;Cascadia code PL&amp;quot;, Menlo, Monaco, &amp;quot;Courier New&amp;quot;, monospace, Consolas, &amp;quot;Courier New&amp;quot;, monospace; font-size: 15px; line-height: 20px;&quot;&gt;&lt;span style=&quot;color: #ce9178;&quot;&gt;Do a 100 pushups&lt;/span&gt;&lt;/div&gt;" style="text;strokeColor=none;fillColor=none;align=left;verticalAlign=middle;spacingLeft=4;spacingRight=4;overflow=hidden;points=[[0,0.5],[1,0.5]];portConstraint=eastwest;rotatable=0;whiteSpace=wrap;html=1;" vertex="1" parent="48">
                    <mxGeometry y="90" width="220" height="30" as="geometry"/>
                </mxCell>
                <mxCell id="52" value="&lt;div style=&quot;color: rgb(204, 204, 204); background-color: rgb(31, 31, 31); font-family: &amp;quot;Cascadia code PL&amp;quot;, Menlo, Monaco, &amp;quot;Courier New&amp;quot;, monospace, Consolas, &amp;quot;Courier New&amp;quot;, monospace; font-size: 15px; line-height: 20px;&quot;&gt;&lt;span style=&quot;color: #c586c0;&quot;&gt;await&lt;/span&gt; &lt;span style=&quot;color: #dcdcaa;&quot;&gt;getDocs&lt;/span&gt;(&lt;span style=&quot;color: #dcdcaa;&quot;&gt;collection&lt;/span&gt;(&lt;span style=&quot;color: #4fc1ff;&quot;&gt;db&lt;/span&gt;, &lt;span style=&quot;color: #ce9178;&quot;&gt;'todos'&lt;/span&gt;))&lt;/div&gt;" style="rounded=0;whiteSpace=wrap;html=1;" vertex="1" parent="1">
                    <mxGeometry x="70" y="1270" width="300" height="60" as="geometry"/>
                </mxCell>
                <mxCell id="53" style="edgeStyle=orthogonalEdgeStyle;html=1;entryX=1;entryY=0.5;entryDx=0;entryDy=0;" edge="1" parent="1" source="45" target="50">
                    <mxGeometry relative="1" as="geometry"/>
                </mxCell>
                <mxCell id="57" style="edgeStyle=orthogonalEdgeStyle;html=1;entryX=0;entryY=0.5;entryDx=0;entryDy=0;" edge="1" parent="1" source="54" target="58">
                    <mxGeometry relative="1" as="geometry">
                        <mxPoint x="480" y="1590" as="targetPoint"/>
                    </mxGeometry>
                </mxCell>
                <mxCell id="54" value="&lt;div style=&quot;color: rgb(204, 204, 204); background-color: rgb(31, 31, 31); font-family: &amp;quot;Cascadia code PL&amp;quot;, Menlo, Monaco, &amp;quot;Courier New&amp;quot;, monospace, Consolas, &amp;quot;Courier New&amp;quot;, monospace; font-size: 15px; line-height: 20px;&quot;&gt;&lt;div style=&quot;line-height: 20px;&quot;&gt;&lt;span style=&quot;color: #c586c0;&quot;&gt;await&lt;/span&gt; &lt;span style=&quot;color: #dcdcaa;&quot;&gt;deleteDoc&lt;/span&gt;(&lt;span style=&quot;color: #dcdcaa;&quot;&gt;doc&lt;/span&gt;(&lt;span style=&quot;color: #4fc1ff;&quot;&gt;db&lt;/span&gt;, &lt;span style=&quot;color: #ce9178;&quot;&gt;'todos'&lt;/span&gt;, &lt;span style=&quot;color: #9cdcfe;&quot;&gt;idToDelete&lt;/span&gt;))&lt;/div&gt;&lt;/div&gt;" style="rounded=0;whiteSpace=wrap;html=1;" vertex="1" parent="1">
                    <mxGeometry x="60" y="1560" width="300" height="60" as="geometry"/>
                </mxCell>
                <mxCell id="56" style="edgeStyle=orthogonalEdgeStyle;html=1;entryX=0.25;entryY=0;entryDx=0;entryDy=0;" edge="1" parent="1" source="55" target="54">
                    <mxGeometry relative="1" as="geometry"/>
                </mxCell>
                <mxCell id="55" value="delete btn" style="rounded=0;whiteSpace=wrap;html=1;" vertex="1" parent="1">
                    <mxGeometry x="-10" y="1440" width="120" height="30" as="geometry"/>
                </mxCell>
                <mxCell id="64" style="edgeStyle=orthogonalEdgeStyle;html=1;entryX=0.5;entryY=0;entryDx=0;entryDy=0;" edge="1" parent="1" source="58" target="59">
                    <mxGeometry relative="1" as="geometry"/>
                </mxCell>
                <mxCell id="58" value="Delete&amp;nbsp;&amp;nbsp;&lt;span style=&quot;color: rgb(206, 145, 120); font-family: &amp;quot;Cascadia code PL&amp;quot;, Menlo, Monaco, &amp;quot;Courier New&amp;quot;, monospace, Consolas, &amp;quot;Courier New&amp;quot;, monospace; font-size: 15px; text-align: left; background-color: rgb(31, 31, 31);&quot;&gt;Go to Shopping&lt;/span&gt;" style="rounded=0;whiteSpace=wrap;html=1;" vertex="1" parent="1">
                    <mxGeometry x="500" y="1560" width="120" height="60" as="geometry"/>
                </mxCell>
                <mxCell id="65" style="edgeStyle=orthogonalEdgeStyle;html=1;entryX=0.5;entryY=0;entryDx=0;entryDy=0;" edge="1" parent="1" source="59" target="60">
                    <mxGeometry relative="1" as="geometry"/>
                </mxCell>
                <mxCell id="59" value="DELETING" style="rounded=0;whiteSpace=wrap;html=1;" vertex="1" parent="1">
                    <mxGeometry x="500" y="1670" width="120" height="60" as="geometry"/>
                </mxCell>
                <mxCell id="60" value="collection todos" style="swimlane;fontStyle=0;childLayout=stackLayout;horizontal=1;startSize=30;horizontalStack=0;resizeParent=1;resizeParentMax=0;resizeLast=0;collapsible=1;marginBottom=0;whiteSpace=wrap;html=1;" vertex="1" parent="1">
                    <mxGeometry x="450" y="1770" width="220" height="90" as="geometry"/>
                </mxCell>
                <mxCell id="61" value="&lt;div style=&quot;color: rgb(204, 204, 204); background-color: rgb(31, 31, 31); font-family: &amp;quot;Cascadia code PL&amp;quot;, Menlo, Monaco, &amp;quot;Courier New&amp;quot;, monospace, Consolas, &amp;quot;Courier New&amp;quot;, monospace; font-size: 15px; line-height: 20px;&quot;&gt;&lt;span style=&quot;color: #ce9178;&quot;&gt;Buy Eggs&lt;/span&gt;&lt;/div&gt;" style="text;strokeColor=none;fillColor=none;align=left;verticalAlign=middle;spacingLeft=4;spacingRight=4;overflow=hidden;points=[[0,0.5],[1,0.5]];portConstraint=eastwest;rotatable=0;whiteSpace=wrap;html=1;" vertex="1" parent="60">
                    <mxGeometry y="30" width="220" height="30" as="geometry"/>
                </mxCell>
                <mxCell id="63" value="&lt;div style=&quot;color: rgb(204, 204, 204); background-color: rgb(31, 31, 31); font-family: &amp;quot;Cascadia code PL&amp;quot;, Menlo, Monaco, &amp;quot;Courier New&amp;quot;, monospace, Consolas, &amp;quot;Courier New&amp;quot;, monospace; font-size: 15px; line-height: 20px;&quot;&gt;&lt;span style=&quot;color: #ce9178;&quot;&gt;Do a 100 pushups&lt;/span&gt;&lt;/div&gt;" style="text;strokeColor=none;fillColor=none;align=left;verticalAlign=middle;spacingLeft=4;spacingRight=4;overflow=hidden;points=[[0,0.5],[1,0.5]];portConstraint=eastwest;rotatable=0;whiteSpace=wrap;html=1;" vertex="1" parent="60">
                    <mxGeometry y="60" width="220" height="30" as="geometry"/>
                </mxCell>
                <mxCell id="66" style="edgeStyle=orthogonalEdgeStyle;html=1;" edge="1" parent="1" source="61" target="67">
                    <mxGeometry relative="1" as="geometry">
                        <mxPoint x="310" y="1815" as="targetPoint"/>
                    </mxGeometry>
                </mxCell>
                <mxCell id="69" style="edgeStyle=orthogonalEdgeStyle;html=1;entryX=0.464;entryY=-0.005;entryDx=0;entryDy=0;entryPerimeter=0;" edge="1" parent="1" source="67" target="68">
                    <mxGeometry relative="1" as="geometry"/>
                </mxCell>
                <mxCell id="86" style="edgeStyle=orthogonalEdgeStyle;html=1;" edge="1" parent="1" source="67" target="87">
                    <mxGeometry relative="1" as="geometry">
                        <mxPoint x="-190" y="1830" as="targetPoint"/>
                    </mxGeometry>
                </mxCell>
                <mxCell id="67" value="SUCCESS" style="rounded=0;whiteSpace=wrap;html=1;" vertex="1" parent="1">
                    <mxGeometry x="160" y="1785" width="120" height="60" as="geometry"/>
                </mxCell>
                <mxCell id="70" style="edgeStyle=orthogonalEdgeStyle;html=1;" edge="1" parent="1" source="68">
                    <mxGeometry relative="1" as="geometry">
                        <mxPoint x="470" y="1930" as="targetPoint"/>
                    </mxGeometry>
                </mxCell>
                <mxCell id="68" value="&lt;div style=&quot;color: rgb(204, 204, 204); background-color: rgb(31, 31, 31); font-family: &amp;quot;Cascadia code PL&amp;quot;, Menlo, Monaco, &amp;quot;Courier New&amp;quot;, monospace, Consolas, &amp;quot;Courier New&amp;quot;, monospace; font-size: 15px; line-height: 20px;&quot;&gt;&lt;span style=&quot;color: #c586c0;&quot;&gt;await&lt;/span&gt; &lt;span style=&quot;color: #dcdcaa;&quot;&gt;getDocs&lt;/span&gt;(&lt;span style=&quot;color: #dcdcaa;&quot;&gt;collection&lt;/span&gt;(&lt;span style=&quot;color: #4fc1ff;&quot;&gt;db&lt;/span&gt;, &lt;span style=&quot;color: #ce9178;&quot;&gt;'todos'&lt;/span&gt;))&lt;/div&gt;" style="rounded=0;whiteSpace=wrap;html=1;" vertex="1" parent="1">
                    <mxGeometry x="50" y="1890" width="300" height="60" as="geometry"/>
                </mxCell>
                <mxCell id="74" style="edgeStyle=orthogonalEdgeStyle;html=1;" edge="1" parent="1" source="71" target="75">
                    <mxGeometry relative="1" as="geometry">
                        <mxPoint x="280" y="2070" as="targetPoint"/>
                        <Array as="points">
                            <mxPoint x="580" y="2070"/>
                        </Array>
                    </mxGeometry>
                </mxCell>
                <mxCell id="71" value="collection todos" style="swimlane;fontStyle=0;childLayout=stackLayout;horizontal=1;startSize=30;horizontalStack=0;resizeParent=1;resizeParentMax=0;resizeLast=0;collapsible=1;marginBottom=0;whiteSpace=wrap;html=1;" vertex="1" parent="1">
                    <mxGeometry x="470" y="1880" width="220" height="90" as="geometry"/>
                </mxCell>
                <mxCell id="72" value="&lt;div style=&quot;color: rgb(204, 204, 204); background-color: rgb(31, 31, 31); font-family: &amp;quot;Cascadia code PL&amp;quot;, Menlo, Monaco, &amp;quot;Courier New&amp;quot;, monospace, Consolas, &amp;quot;Courier New&amp;quot;, monospace; font-size: 15px; line-height: 20px;&quot;&gt;&lt;span style=&quot;color: #ce9178;&quot;&gt;Buy Eggs&lt;/span&gt;&lt;/div&gt;" style="text;strokeColor=none;fillColor=none;align=left;verticalAlign=middle;spacingLeft=4;spacingRight=4;overflow=hidden;points=[[0,0.5],[1,0.5]];portConstraint=eastwest;rotatable=0;whiteSpace=wrap;html=1;" vertex="1" parent="71">
                    <mxGeometry y="30" width="220" height="30" as="geometry"/>
                </mxCell>
                <mxCell id="73" value="&lt;div style=&quot;color: rgb(204, 204, 204); background-color: rgb(31, 31, 31); font-family: &amp;quot;Cascadia code PL&amp;quot;, Menlo, Monaco, &amp;quot;Courier New&amp;quot;, monospace, Consolas, &amp;quot;Courier New&amp;quot;, monospace; font-size: 15px; line-height: 20px;&quot;&gt;&lt;span style=&quot;color: #ce9178;&quot;&gt;Do a 100 pushups&lt;/span&gt;&lt;/div&gt;" style="text;strokeColor=none;fillColor=none;align=left;verticalAlign=middle;spacingLeft=4;spacingRight=4;overflow=hidden;points=[[0,0.5],[1,0.5]];portConstraint=eastwest;rotatable=0;whiteSpace=wrap;html=1;" vertex="1" parent="71">
                    <mxGeometry y="60" width="220" height="30" as="geometry"/>
                </mxCell>
                <mxCell id="77" value="" style="edgeStyle=orthogonalEdgeStyle;html=1;" edge="1" parent="1" source="75" target="76">
                    <mxGeometry relative="1" as="geometry"/>
                </mxCell>
                <mxCell id="75" value="TODOARR []" style="rounded=0;whiteSpace=wrap;html=1;" vertex="1" parent="1">
                    <mxGeometry x="170" y="2030" width="120" height="60" as="geometry"/>
                </mxCell>
                <mxCell id="82" style="edgeStyle=orthogonalEdgeStyle;html=1;entryX=0.544;entryY=-0.022;entryDx=0;entryDy=0;entryPerimeter=0;" edge="1" parent="1" source="76" target="78">
                    <mxGeometry relative="1" as="geometry"/>
                </mxCell>
                <mxCell id="76" value="ATNAUJINAM JSX" style="rounded=0;whiteSpace=wrap;html=1;" vertex="1" parent="1">
                    <mxGeometry x="170" y="2130" width="120" height="60" as="geometry"/>
                </mxCell>
                <mxCell id="78" value="todoArr State" style="swimlane;fontStyle=0;childLayout=stackLayout;horizontal=1;startSize=30;horizontalStack=0;resizeParent=1;resizeParentMax=0;resizeLast=0;collapsible=1;marginBottom=0;whiteSpace=wrap;html=1;" vertex="1" parent="1">
                    <mxGeometry x="110" y="2240" width="220" height="90" as="geometry"/>
                </mxCell>
                <mxCell id="79" value="&lt;div style=&quot;color: rgb(204, 204, 204); background-color: rgb(31, 31, 31); font-family: &amp;quot;Cascadia code PL&amp;quot;, Menlo, Monaco, &amp;quot;Courier New&amp;quot;, monospace, Consolas, &amp;quot;Courier New&amp;quot;, monospace; font-size: 15px; line-height: 20px;&quot;&gt;&lt;span style=&quot;color: #ce9178;&quot;&gt;Buy Eggs&lt;/span&gt;&lt;/div&gt;" style="text;strokeColor=none;fillColor=none;align=left;verticalAlign=middle;spacingLeft=4;spacingRight=4;overflow=hidden;points=[[0,0.5],[1,0.5]];portConstraint=eastwest;rotatable=0;whiteSpace=wrap;html=1;" vertex="1" parent="78">
                    <mxGeometry y="30" width="220" height="30" as="geometry"/>
                </mxCell>
                <mxCell id="81" value="&lt;div style=&quot;color: rgb(204, 204, 204); background-color: rgb(31, 31, 31); font-family: &amp;quot;Cascadia code PL&amp;quot;, Menlo, Monaco, &amp;quot;Courier New&amp;quot;, monospace, Consolas, &amp;quot;Courier New&amp;quot;, monospace; font-size: 15px; line-height: 20px;&quot;&gt;&lt;span style=&quot;color: #ce9178;&quot;&gt;Do a 100 pushups&lt;/span&gt;&lt;/div&gt;" style="text;strokeColor=none;fillColor=none;align=left;verticalAlign=middle;spacingLeft=4;spacingRight=4;overflow=hidden;points=[[0,0.5],[1,0.5]];portConstraint=eastwest;rotatable=0;whiteSpace=wrap;html=1;" vertex="1" parent="78">
                    <mxGeometry y="60" width="220" height="30" as="geometry"/>
                </mxCell>
                <mxCell id="83" value="collection todos" style="swimlane;fontStyle=0;childLayout=stackLayout;horizontal=1;startSize=30;horizontalStack=0;resizeParent=1;resizeParentMax=0;resizeLast=0;collapsible=1;marginBottom=0;whiteSpace=wrap;html=1;" vertex="1" parent="1">
                    <mxGeometry x="470" y="2240" width="220" height="90" as="geometry"/>
                </mxCell>
                <mxCell id="84" value="&lt;div style=&quot;color: rgb(204, 204, 204); background-color: rgb(31, 31, 31); font-family: &amp;quot;Cascadia code PL&amp;quot;, Menlo, Monaco, &amp;quot;Courier New&amp;quot;, monospace, Consolas, &amp;quot;Courier New&amp;quot;, monospace; font-size: 15px; line-height: 20px;&quot;&gt;&lt;span style=&quot;color: #ce9178;&quot;&gt;Buy Eggs&lt;/span&gt;&lt;/div&gt;" style="text;strokeColor=none;fillColor=none;align=left;verticalAlign=middle;spacingLeft=4;spacingRight=4;overflow=hidden;points=[[0,0.5],[1,0.5]];portConstraint=eastwest;rotatable=0;whiteSpace=wrap;html=1;" vertex="1" parent="83">
                    <mxGeometry y="30" width="220" height="30" as="geometry"/>
                </mxCell>
                <mxCell id="85" value="&lt;div style=&quot;color: rgb(204, 204, 204); background-color: rgb(31, 31, 31); font-family: &amp;quot;Cascadia code PL&amp;quot;, Menlo, Monaco, &amp;quot;Courier New&amp;quot;, monospace, Consolas, &amp;quot;Courier New&amp;quot;, monospace; font-size: 15px; line-height: 20px;&quot;&gt;&lt;span style=&quot;color: #ce9178;&quot;&gt;Do a 100 pushups&lt;/span&gt;&lt;/div&gt;" style="text;strokeColor=none;fillColor=none;align=left;verticalAlign=middle;spacingLeft=4;spacingRight=4;overflow=hidden;points=[[0,0.5],[1,0.5]];portConstraint=eastwest;rotatable=0;whiteSpace=wrap;html=1;" vertex="1" parent="83">
                    <mxGeometry y="60" width="220" height="30" as="geometry"/>
                </mxCell>
                <mxCell id="92" style="edgeStyle=orthogonalEdgeStyle;html=1;entryX=0.537;entryY=-0.017;entryDx=0;entryDy=0;entryPerimeter=0;" edge="1" parent="1" source="87" target="88">
                    <mxGeometry relative="1" as="geometry"/>
                </mxCell>
                <mxCell id="87" value="FILTER LOCAL STATE&lt;br&gt;LOCAL DELETE" style="rounded=0;whiteSpace=wrap;html=1;" vertex="1" parent="1">
                    <mxGeometry x="-270" y="1785" width="120" height="60" as="geometry"/>
                </mxCell>
                <mxCell id="88" value="todoArr State" style="swimlane;fontStyle=0;childLayout=stackLayout;horizontal=1;startSize=30;horizontalStack=0;resizeParent=1;resizeParentMax=0;resizeLast=0;collapsible=1;marginBottom=0;whiteSpace=wrap;html=1;" vertex="1" parent="1">
                    <mxGeometry x="-350" y="1900" width="220" height="90" as="geometry"/>
                </mxCell>
                <mxCell id="89" value="&lt;div style=&quot;color: rgb(204, 204, 204); background-color: rgb(31, 31, 31); font-family: &amp;quot;Cascadia code PL&amp;quot;, Menlo, Monaco, &amp;quot;Courier New&amp;quot;, monospace, Consolas, &amp;quot;Courier New&amp;quot;, monospace; font-size: 15px; line-height: 20px;&quot;&gt;&lt;span style=&quot;color: #ce9178;&quot;&gt;Buy Eggs&lt;/span&gt;&lt;/div&gt;" style="text;strokeColor=none;fillColor=none;align=left;verticalAlign=middle;spacingLeft=4;spacingRight=4;overflow=hidden;points=[[0,0.5],[1,0.5]];portConstraint=eastwest;rotatable=0;whiteSpace=wrap;html=1;" vertex="1" parent="88">
                    <mxGeometry y="30" width="220" height="30" as="geometry"/>
                </mxCell>
                <mxCell id="91" value="&lt;div style=&quot;color: rgb(204, 204, 204); background-color: rgb(31, 31, 31); font-family: &amp;quot;Cascadia code PL&amp;quot;, Menlo, Monaco, &amp;quot;Courier New&amp;quot;, monospace, Consolas, &amp;quot;Courier New&amp;quot;, monospace; font-size: 15px; line-height: 20px;&quot;&gt;&lt;span style=&quot;color: #ce9178;&quot;&gt;Do a 100 pushups&lt;/span&gt;&lt;/div&gt;" style="text;strokeColor=none;fillColor=none;align=left;verticalAlign=middle;spacingLeft=4;spacingRight=4;overflow=hidden;points=[[0,0.5],[1,0.5]];portConstraint=eastwest;rotatable=0;whiteSpace=wrap;html=1;" vertex="1" parent="88">
                    <mxGeometry y="60" width="220" height="30" as="geometry"/>
                </mxCell>
            </root>
        </mxGraphModel>
    </diagram>
</mxfile>